<mxfile host="app.diagrams.net" agent="Mozilla/5.0 (Macintosh; Intel Mac OS X 10_15_7) AppleWebKit/537.36 (KHTML, like Gecko) Chrome/135.0.0.0 Safari/537.36" version="26.2.3">
  <diagram name="第 1 页" id="_FeNyYrJ65TjTCXx1a1C">
    <mxGraphModel dx="978" dy="564" grid="1" gridSize="10" guides="1" tooltips="1" connect="1" arrows="1" fold="1" page="1" pageScale="1" pageWidth="827" pageHeight="1169" background="#000000" math="0" shadow="1" adaptiveColors="auto">
      <root>
        <mxCell id="0" />
        <mxCell id="1" parent="0" />
        <mxCell id="p2q3Rly1GwkyGb086g_a-6" style="edgeStyle=orthogonalEdgeStyle;rounded=1;orthogonalLoop=1;jettySize=auto;html=1;exitX=0.5;exitY=1;exitDx=0;exitDy=0;labelBackgroundColor=none;fontColor=default;" edge="1" parent="1">
          <mxGeometry relative="1" as="geometry">
            <mxPoint x="230" y="460" as="sourcePoint" />
            <mxPoint x="230" y="460" as="targetPoint" />
          </mxGeometry>
        </mxCell>
        <mxCell id="p2q3Rly1GwkyGb086g_a-19" value="用户（小程序）" style="rounded=1;whiteSpace=wrap;html=1;shadow=1;labelBackgroundColor=none;fillColor=#f5f5f5;gradientColor=#000000;strokeColor=#666666;" vertex="1" parent="1">
          <mxGeometry x="114" y="40" width="120" height="60" as="geometry" />
        </mxCell>
        <mxCell id="p2q3Rly1GwkyGb086g_a-20" value="易订" style="whiteSpace=wrap;html=1;rounded=1;shadow=1;labelBackgroundColor=none;fillColor=#f5f5f5;gradientColor=default;strokeColor=#666666;" vertex="1" parent="1">
          <mxGeometry x="114" y="170" width="120" height="60" as="geometry" />
        </mxCell>
        <mxCell id="p2q3Rly1GwkyGb086g_a-22" value="前端" style="rounded=1;whiteSpace=wrap;html=1;shadow=1;labelBackgroundColor=none;strokeColor=#666666;fillColor=#f5f5f5;gradientColor=#000000;" vertex="1" parent="1">
          <mxGeometry x="354" y="40" width="120" height="60" as="geometry" />
        </mxCell>
        <mxCell id="p2q3Rly1GwkyGb086g_a-32" value="" style="endArrow=classic;startArrow=classic;html=1;rounded=1;entryX=0.5;entryY=1;entryDx=0;entryDy=0;exitX=0.5;exitY=0;exitDx=0;exitDy=0;labelBackgroundColor=none;fontColor=default;strokeColor=#FFFFFF;" edge="1" parent="1" source="p2q3Rly1GwkyGb086g_a-20" target="p2q3Rly1GwkyGb086g_a-19">
          <mxGeometry width="50" height="50" relative="1" as="geometry">
            <mxPoint x="160" y="170" as="sourcePoint" />
            <mxPoint x="210" y="120" as="targetPoint" />
            <Array as="points" />
          </mxGeometry>
        </mxCell>
        <mxCell id="p2q3Rly1GwkyGb086g_a-42" value="" style="edgeStyle=orthogonalEdgeStyle;rounded=0;orthogonalLoop=1;jettySize=auto;html=1;" edge="1" parent="1" source="p2q3Rly1GwkyGb086g_a-33" target="p2q3Rly1GwkyGb086g_a-22">
          <mxGeometry relative="1" as="geometry" />
        </mxCell>
        <mxCell id="p2q3Rly1GwkyGb086g_a-43" value="" style="edgeStyle=orthogonalEdgeStyle;rounded=0;orthogonalLoop=1;jettySize=auto;html=1;" edge="1" parent="1" source="p2q3Rly1GwkyGb086g_a-33" target="p2q3Rly1GwkyGb086g_a-22">
          <mxGeometry relative="1" as="geometry" />
        </mxCell>
        <mxCell id="p2q3Rly1GwkyGb086g_a-33" value="宴荟佳" style="whiteSpace=wrap;html=1;rounded=1;shadow=1;labelBackgroundColor=none;fillStyle=auto;fillColor=#f5f5f5;strokeColor=#666666;gradientColor=#000000;" vertex="1" parent="1">
          <mxGeometry x="354" y="170" width="120" height="60" as="geometry" />
        </mxCell>
        <mxCell id="p2q3Rly1GwkyGb086g_a-34" value="" style="endArrow=classic;startArrow=classic;html=1;rounded=1;entryX=0.5;entryY=1;entryDx=0;entryDy=0;exitX=0.5;exitY=0;exitDx=0;exitDy=0;labelBackgroundColor=none;fontColor=default;strokeColor=#FFFFFF;" edge="1" parent="1">
          <mxGeometry width="50" height="50" relative="1" as="geometry">
            <mxPoint x="413" y="170" as="sourcePoint" />
            <mxPoint x="413" y="100" as="targetPoint" />
            <Array as="points">
              <mxPoint x="413" y="150" />
            </Array>
          </mxGeometry>
        </mxCell>
        <mxCell id="p2q3Rly1GwkyGb086g_a-35" value="Python 轻量级服务" style="whiteSpace=wrap;html=1;rounded=1;shadow=1;labelBackgroundColor=none;fillColor=#f5f5f5;gradientColor=#000000;strokeColor=#666666;" vertex="1" parent="1">
          <mxGeometry x="234" y="300" width="120" height="60" as="geometry" />
        </mxCell>
        <mxCell id="p2q3Rly1GwkyGb086g_a-37" value="" style="endArrow=classic;startArrow=classic;html=1;rounded=1;entryX=0.5;entryY=1;entryDx=0;entryDy=0;exitX=0;exitY=0.5;exitDx=0;exitDy=0;labelBackgroundColor=none;fontColor=default;strokeColor=#FFFFFF;" edge="1" parent="1" source="p2q3Rly1GwkyGb086g_a-35">
          <mxGeometry width="50" height="50" relative="1" as="geometry">
            <mxPoint x="179.5" y="300" as="sourcePoint" />
            <mxPoint x="179.5" y="230" as="targetPoint" />
            <Array as="points">
              <mxPoint x="180" y="330" />
            </Array>
          </mxGeometry>
        </mxCell>
        <mxCell id="p2q3Rly1GwkyGb086g_a-38" value="" style="endArrow=classic;startArrow=classic;html=1;rounded=1;entryX=0.5;entryY=1;entryDx=0;entryDy=0;exitX=1;exitY=0.5;exitDx=0;exitDy=0;labelBackgroundColor=none;fontColor=default;strokeColor=#FFFFFF;" edge="1" parent="1" source="p2q3Rly1GwkyGb086g_a-35" target="p2q3Rly1GwkyGb086g_a-33">
          <mxGeometry width="50" height="50" relative="1" as="geometry">
            <mxPoint x="374.5" y="360" as="sourcePoint" />
            <mxPoint x="320" y="260" as="targetPoint" />
            <Array as="points">
              <mxPoint x="390" y="330" />
              <mxPoint x="414" y="330" />
            </Array>
          </mxGeometry>
        </mxCell>
        <mxCell id="p2q3Rly1GwkyGb086g_a-41" value="" style="endArrow=classic;startArrow=classic;html=1;rounded=1;entryX=0.5;entryY=1;entryDx=0;entryDy=0;exitX=0.5;exitY=0;exitDx=0;exitDy=0;labelBackgroundColor=none;fontColor=default;strokeColor=#FFFFFF;" edge="1" parent="1" target="p2q3Rly1GwkyGb086g_a-35">
          <mxGeometry width="50" height="50" relative="1" as="geometry">
            <mxPoint x="294" y="430" as="sourcePoint" />
            <mxPoint x="310" y="370" as="targetPoint" />
          </mxGeometry>
        </mxCell>
        <mxCell id="p2q3Rly1GwkyGb086g_a-44" value="Dify" style="whiteSpace=wrap;html=1;rounded=1;shadow=1;labelBackgroundColor=none;fillColor=#f5f5f5;gradientColor=#000000;strokeColor=#666666;" vertex="1" parent="1">
          <mxGeometry x="234" y="430" width="120" height="60" as="geometry" />
        </mxCell>
      </root>
    </mxGraphModel>
  </diagram>
</mxfile>
